#!OML:ASF H:\IndianDance\Patient Classification 1\Patient 1\Session 1\dancer.ASF
:FULLY-SPECIFIED
:DEGREES
2924
root 15.7685 13.7408 3.3959 191.215 -42.9762 -184.904
lowerback 1.24399 -5.79222 -4.5926
upperback -8.51762 -8.40501 2.0035
thorax -8.76039 -3.90004 5.36967
lowerneck -10.6792 -9.41133 -7.98103
upperneck 9.0291 -13.351 12.3685
head 5.8644 -6.18136 3.93923
rclavicle 7.25564e-015 4.37326e-014
rhumerus -19.9923 -17.1925 -30.4093
rradius 82.7067
rwrist -62.4876
rhand -27.9828 -5.99529
rfingers 7.12502
rthumb -1.36926 -35.9706
lclavicle 7.25564e-015 4.37326e-014
lhumerus 0.214804 -43.7901 13.3166
lradius 110.367
lwrist 14.726
lhand -46.3775 363.81
lfingers 7.12502
lthumb -19.1088 392.891
rfemur -230.672 191.778 234.258
rtibia 49.8408
rfoot 13.7413 -350.807
rtoes 29.4543
lfemur -0.659929 12.4462 -46.4404
ltibia 29.7432
lfoot -14.9523 -17.192
ltoes 35.698
2925
root 15.4633 13.7048 3.44691 191.24 -43.4399 -184.253
lowerback 0.569848 -6.27548 -4.25911
upperback -8.85163 -9.01531 2.72916
thorax -8.5966 -4.22488 5.92152
lowerneck -10.6457 -9.53821 -7.66222
upperneck 9.14515 -13.559 12.078
head 5.87239 -6.28964 3.77544
rclavicle 9.30312e-014 2.8625e-014
rhumerus -15.7143 -18.6403 -29.9821
rradius 76.8644
rwrist -68.8884
rhand -26.6091 -9.66434
rfingers 7.12502
rthumb -0.0424988 -39.6441
lclavicle 9.30312e-014 2.8625e-014
lhumerus 1.54768 -45.5048 12.1237
lradius 111.028
lwrist 12.3072
lhand -47.365 359.907
lfingers 7.12502
lthumb -20.0581 388.892
rfemur -231.306 191.681 233.877
rtibia 51.5915
rfoot 10.2058 -350.373
rtoes 31.3823
lfemur 0.430018 12.824 -46.6139
ltibia 28.2452
lfoot -12.9662 -17.7536
ltoes 35.9222
2926
root 15.1564 13.67 3.50074 191.162 -43.9124 -183.533
lowerback -0.0492888 -6.72676 -3.86003
upperback -9.15048 -9.58958 3.47227
thorax -8.43118 -4.5392 6.44936
lowerneck -10.6581 -9.6551 -7.31413
upperneck 9.21705 -13.7337 11.7218
head 5.86281 -6.38229 3.59024
rclavicle 2.08724e-013 6.2816e-014
rhumerus -11.3419 -20.3494 -29.8353
rradius 70.852
rwrist -74.8162
rhand -25.8604 -12.804
rfingers 7.12502
rthumb 0.680608 -42.7827
lclavicle 2.08724e-013 6.2816e-014
lhumerus 3.05099 -47.0107 10.8603
lradius 111.593
lwrist 9.98236
lhand -48.2762 356.373
lfingers 7.12502
lthumb -20.9338 385.263
rfemur -231.943 191.556 233.452
rtibia 53.3699
rfoot 6.75751 -350.236
rtoes 32.7824
lfemur 1.52885 13.1235 -46.7304
ltibia 26.7963
lfoot -10.7733 -18.1889
ltoes 36.0353
2927
root 14.8486 13.6375 3.55722 190.944 -44.3688 -182.701
lowerback -0.608649 -7.13333 -3.36385
upperback -9.40651 -10.1098 4.22989
thorax -8.26813 -4.83597 6.9357
lowerneck -10.7157 -9.76174 -6.93266
upperneck 9.23227 -13.8757 11.3083
head 5.83217 -6.45942 3.38614
rclavicle -8.15017e-015 -5.00937e-014
rhumerus -6.91316 -22.3612 -30.031
rradius 64.7723
rwrist -79.6917
rhand -25.6053 -15.3238
rfingers 7.12502
rthumb 0.926954 -45.3015
lclavicle -8.15017e-015 -5.00937e-014
lhumerus 4.70907 -48.3063 9.52193
lradius 112.069
lwrist 7.76746
lhand -49.1495 353.069
lfingers 7.12502
lthumb -21.7726 381.864
rfemur -232.519 191.364 233.002
rtibia 55.0959
rfoot 3.57047 -350.411
rtoes 33.7625
lfemur 2.604 13.3521 -46.7631
ltibia 25.4418
lfoot -8.38508 -18.4745
ltoes 36.1546
2928
root 14.5401 13.6088 3.61587 190.57 -44.7795 -181.741
lowerback -1.10535 -7.4792 -2.76686
upperback -9.61598 -10.5559 4.99586
thorax -8.11224 -5.10519 7.37531
lowerneck -10.7841 -9.86527 -6.56039
upperneck 9.15465 -13.9955 10.891
head 5.77164 -6.52706 3.1872
rclavicle -1.03964e-013 -6.36111e-015
rhumerus -2.46284 -24.6956 -30.6195
rradius 58.7579
rwrist -82.9481
rhand -25.7438 -17.1369
rfingers 7.12502
rthumb 0.793234 -47.1152
lclavicle -1.03964e-013 -6.36111e-015
lhumerus 6.4951 -49.4005 8.13454
lradius 112.479
lwrist 5.71019
lhand -49.9518 350.063
lfingers 7.12502
lthumb -22.5428 378.767
rfemur -232.975 191.081 232.528
rtibia 56.71
rfoot 0.649016 -350.781
rtoes 34.5301
lfemur 3.62016 13.5434 -46.6973
ltibia 24.2305
lfoot -5.80891 -18.6171
ltoes 36.2698
2929
root 14.2321 13.5842 3.67605 190.03 -45.1109 -180.642
lowerback -1.53321 -7.75229 -2.07069
upperback -9.78162 -10.9139 5.76605
thorax -7.97533 -5.33925 7.76995
lowerneck -10.8521 -9.96299 -6.19112
upperneck 8.98671 -14.0916 10.4653
head 5.67947 -6.58506 2.992
rclavicle 8.15017e-015 -1.43125e-014
rhumerus 1.99049 -27.3407 -31.656
rradius 52.968
rwrist -84.1568
rhand -26.0326 -18.2735
rfingers 7.12502
rthumb 0.514261 -48.2526
lclavicle 8.15017e-015 -1.43125e-014
lhumerus 8.37682 -50.3051 6.71866
lradius 112.835
lwrist 3.82969
lhand -50.6632 347.29
lfingers 7.12502
lthumb -23.2255 375.91
rfemur -233.253 190.684 232.05
rtibia 58.1684
rfoot -2.07719 -351.244
rtoes 35.0166
lfemur 4.53 13.7369 -46.5169
ltibia 23.2147
lfoot -3.02317 -18.6346
ltoes 36.3927
2930
root 13.9252 13.5644 3.73697 189.339 -45.3272 -179.418
lowerback -1.89958 -7.94116 -1.28912
upperback -9.90363 -11.1702 6.52709
thorax -7.85754 -5.53069 8.11498
lowerneck -10.9143 -10.0576 -5.83701
upperneck 8.73955 -14.1721 10.0491
head 5.56149 -6.63698 2.80718
rclavicle -2.52457e-014 -2.8625e-014
rhumerus 6.42334 -30.2474 -33.1776
rradius 47.5705
rwrist -83.2213
rhand -26.3223 -18.8483
rfingers 7.12502
rthumb 0.234477 -48.8279
lclavicle -2.52457e-014 -2.8625e-014
lhumerus 10.3373 -51.0361 5.2776
lradius 113.192
lwrist 2.23763
lhand -51.2465 344.724
lfingers 7.12502
lthumb -23.785 373.272
rfemur -233.315 190.157 231.572
rtibia 59.4526
rfoot -4.64585 -351.83
rtoes 35.0685
lfemur 5.29402 13.9821 -46.2197
ltibia 22.4338
lfoot -0.0276037 -18.5425
ltoes 36.5034
2931
root 13.62 13.5503 3.79788 188.543 -45.415 -178.12
lowerback -2.20918 -8.04544 -0.460484
upperback -9.98711 -11.3259 7.26218
thorax -7.7592 -5.67732 8.41516
lowerneck -10.958 -10.1495 -5.52146
upperneck 8.42815 -14.2425 9.66902
head 5.42472 -6.68509 2.64387
rclavicle -1.09332e-014 2.8625e-014
rhumerus 10.806 -33.291 -35.1602
rradius 42.6999
rwrist -80.3741
rhand -26.5326 -19.0873
rfingers 7.12502
rthumb 0.0313316 -49.0671
lclavicle -1.09332e-014 2.8625e-014
lhumerus 12.3414 -51.6114 3.8429
lradius 113.539
lwrist 0.925563
lhand -51.6684 342.182
lfingers 7.12502
lthumb -24.1896 370.677
rfemur -233.162 189.502 231.077
rtibia 60.5679
rfoot -7.04805 -352.537
rtoes 34.7937
lfemur 5.88012 14.3348 -45.8084
ltibia 21.915
lfoot 3.23398 -18.3879
ltoes 36.6599
2932
root 13.3182 13.5413 3.85809 187.712 -45.3565 -176.821
lowerback -2.46216 -8.06488 0.352423
upperback -10.0427 -11.3811 7.95522
thorax -7.68364 -5.77451 8.6893
lowerneck -10.9722 -10.2368 -5.2581
upperneck 8.06498 -14.3053 9.35114
head 5.27473 -6.72999 2.51172
rclavicle 6.36111e-015 -7.95139e-014
rhumerus 15.0544 -36.2615 -37.4959
rradius 38.4717
rwrist -76.1583
rhand -26.7122 -19.1336
rfingers 7.12502
rthumb -0.142079 -49.1133
lclavicle 6.36111e-015 -7.95139e-014
lhumerus 14.3667 -52.0618 2.42746
lradius 113.891
lwrist -0.139839
lhand -51.9595 339.685
lfingers 7.12502
lthumb -24.4687 368.142
rfemur -232.827 188.716 230.551
rtibia 61.5364
rfoot -9.25029 -353.312
rtoes 34.2228
lfemur 6.2608 14.8504 -45.3035
ltibia 21.6678
lfoot 6.79014 -18.1937
ltoes 36.8272
2933
root 13.0208 13.5375 3.91726 186.922 -45.1612 -175.607
lowerback -2.65881 -8.011 1.08763
upperback -10.0817 -11.3489 8.58683
thorax -7.63282 -5.82381 8.95114
lowerneck -10.981 -10.317 -5.01976
upperneck 7.71217 -14.3626 9.06212
head 5.13063 -6.77163 2.3936
rclavicle -1.17681e-013 5.08889e-014
rhumerus 18.9717 -38.8597 -39.933
rradius 34.9995
rwrist -71.4012
rhand -26.8582 -19.3361
rfingers 7.12502
rthumb -0.283097 -49.3157
lclavicle -1.17681e-013 5.08889e-014
lhumerus 16.3796 -52.4029 1.06191
lradius 114.294
lwrist -0.866205
lhand -52.082 337.123
lfingers 7.12502
lthumb -24.5861 365.564
rfemur -232.377 187.818 229.96
rtibia 62.4017
rfoot -11.2221 -354.138
rtoes 33.3443
lfemur 6.41293 15.5229 -44.7428
ltibia 21.708
lfoot 10.68 -17.9081
ltoes 36.773
2934
root 12.7292 13.5375 3.97514 186.243 -44.8536 -174.562
lowerback -2.79703 -7.90332 1.67693
upperback -10.1108 -11.2504 9.14229
thorax -7.60172 -5.83017 9.22135
lowerneck -10.9866 -10.3836 -4.82015
upperneck 7.38804 -14.4099 8.83047
head 5.00148 -6.80642 2.29948
rclavicle 1.82882e-014 8.42847e-014
rhumerus 22.2226 -40.7363 -42.0632
rradius 32.4092
rwrist -67.073
rhand -27.1177 -19.8262
rfingers 7.12502
rthumb -0.533779 -49.8053
lclavicle 1.82882e-014 8.42847e-014
lhumerus 18.3103 -52.671 -0.215877
lradius 114.713
lwrist -1.46878
lhand -52.1169 334.505
lfingers 7.12502
lthumb -24.6196 362.941
rfemur -231.886 186.84 229.269
rtibia 63.2202
rfoot -12.9424 -355
rtoes 32.16
lfemur 6.31923 16.3685 -44.1589
ltibia 22.0789
lfoot 14.8028 -17.5053
ltoes 36.4687
2935
root 12.4447 13.54 4.03172 185.719 -44.478 -173.748
lowerback -2.87467 -7.76619 2.07333
upperback -10.1347 -11.1118 9.60634
thorax -7.58748 -5.80192 9.50821
lowerneck -11.0072 -10.4302 -4.64144
upperneck 7.12708 -14.444 8.65234
head 4.89926 -6.83144 2.22369
rclavicle -1.39149e-014 4.45278e-014
rhumerus 24.4191 -41.6101 -43.429
rradius 30.7959
rwrist -64.0048
rhand -27.5972 -20.7058
rfingers 7.12502
rthumb -0.996911 -50.6833
lclavicle -1.39149e-014 4.45278e-014
lhumerus 20.1246 -52.891 -1.38523
lradius 115.136
lwrist -2.064
lhand -52.1307 331.957
lfingers 7.12502
lthumb -24.6328 360.391
rfemur -231.422 185.827 228.447
rtibia 64.0488
rfoot -14.4075 -355.876
rtoes 30.7324
lfemur 5.95985 17.3717 -43.5855
ltibia 22.866
lfoot 18.91 -16.9492
ltoes 35.8094
2936
root 12.1682 13.5437 4.08722 185.365 -44.0784 -173.196
lowerback -2.89174 -7.62335 2.24995
upperback -10.1527 -10.9588 9.97233
thorax -7.58245 -5.74865 9.8173
lowerneck -11.0309 -10.4514 -4.4971
upperneck 6.9135 -14.4588 8.56333
head 4.82062 -6.84333 2.17985
rclavicle 6.36111e-015 -1.08139e-013
rhumerus 25.3319 -41.3655 -43.7486
rradius 30.1718
rwrist -62.6085
rhand -28.3799 -21.9554
rfingers 7.12502
rthumb -1.75278 -51.9279
lclavicle 6.36111e-015 -1.08139e-013
lhumerus 21.748 -53.0909 -2.41282
lradius 115.576
lwrist -2.73706
lhand -52.1484 329.656
lfingers 7.12502
lthumb -24.6498 358.089
rfemur -231.034 184.83 227.482
rtibia 64.9283
rfoot -15.6402 -356.741
rtoes 29.1066
lfemur 5.30955 18.5059 -43.0446
ltibia 24.183
lfoot 22.6432 -16.2241
ltoes 34.6914
2937
root 11.9004 13.5472 4.14184 185.151 -43.6936 -172.876
lowerback -2.84815 -7.4968 2.22613
upperback -10.1589 -10.8167 10.2434
thorax -7.5803 -5.68319 10.1399
lowerneck -11.0695 -10.4365 -4.37086
upperneck 6.76159 -14.4406 8.54843
head 4.76873 -6.83501 2.16127
rclavicle -3.61788e-014 6.36111e-014
rhumerus 25.0809 -40.1071 -43.1348
rradius 30.4449
rwrist -62.7753
rhand -29.3653 -23.5444
rfingers 7.12502
rthumb -2.70452 -53.507
lclavicle -3.61788e-014 6.36111e-014
lhumerus 23.0988 -53.2865 -3.25988
lradius 116.055
lwrist -3.49222
lhand -52.1944 327.679
lfingers 7.12502
lthumb -24.6938 356.105
rfemur -230.73 183.903 226.397
rtibia 65.8662
rfoot -16.6856 -357.583
rtoes 27.2527
lfemur 4.35764 19.7572 -42.5229
ltibia 26.1439
lfoot 25.5611 -15.4711
ltoes 33.1727
2938
root 11.641 13.5503 4.19588 185.028 -43.3544 -172.74
lowerback -2.7506 -7.39847 2.04451
upperback -10.1442 -10.6997 10.4271
thorax -7.572 -5.61533 10.4584
lowerneck -11.1599 -10.3874 -4.25557
upperneck 6.70612 -14.3906 8.57892
head 4.75762 -6.80606 2.15537
rclavicle -3.26007e-014 2.54444e-014
rhumerus 24.0441 -38.1233 -41.977
rradius 31.4201
rwrist -63.9231
rhand -30.4965 -25.2537
rfingers 7.12502
rthumb -3.79695 -55.1996
lclavicle -3.26007e-014 2.54444e-014
lhumerus 24.1265 -53.489 -3.89343
lradius 116.589
lwrist -4.27888
lhand -52.2448 326.042
lfingers 7.12502
lthumb -24.7422 354.462
rfemur -230.489 183.097 225.225
rtibia 66.8406
rfoot -17.5986 -358.359
rtoes 25.2963
lfemur 3.10991 21.0906 -41.9976
ltibia 28.8154
lfoot 27.269 -14.8979
ltoes 31.1969
